HIERARCHY
ROOT Hips
{
	OFFSET 0.000000 0.000000 0.000000
	CHANNELS 6 Xposition Yposition Zposition Xrotation Yrotation Zrotation
	JOINT LeftUpLeg_virtual
	{
		OFFSET 0.000000 0.000000 0.000000
		CHANNELS 3 Xrotation Yrotation Zrotation
		JOINT LeftUpLeg
		{
			OFFSET 10.205400 -3.823500 0.155100
			CHANNELS 3 Xrotation Yrotation Zrotation
			JOINT LeftLeg
			{
				OFFSET 0.708757 -12.982077 0.567790
				CHANNELS 3 Xrotation Yrotation Zrotation
				JOINT LeftFoot
				{
					OFFSET -0.708756 -10.717838 -2.184338
					CHANNELS 3 Xrotation Yrotation Zrotation
					JOINT LeftToeBase
					{
						OFFSET 0.108149 -7.191104 7.560241
						CHANNELS 3 Xrotation Yrotation Zrotation
						JOINT LeftToe_End
						{
							OFFSET 0.070230 0.081724 4.490308
							CHANNELS 3 Xrotation Yrotation Zrotation
							End Site
							{
								OFFSET 0 0 0
							}
						}
					}
				}
			}
		}
	}
	JOINT RightUpLeg_virtual
	{
		OFFSET 0.000000 0.000000 0.000000
		CHANNELS 3 Xrotation Yrotation Zrotation
		JOINT RightUpLeg
		{
			OFFSET -10.205400 -3.823500 0.005500
			CHANNELS 3 Xrotation Yrotation Zrotation
			JOINT RightLeg
			{
				OFFSET -0.708756 -12.982134 0.610632
				CHANNELS 3 Xrotation Yrotation Zrotation
				JOINT RightFoot
				{
					OFFSET 0.708754 -10.717769 -1.945823
					CHANNELS 3 Xrotation Yrotation Zrotation
					JOINT RightToeBase
					{
						OFFSET -0.108140 -7.191069 7.372968
						CHANNELS 3 Xrotation Yrotation Zrotation
						JOINT RightToe_End
						{
							OFFSET -0.070227 0.081735 4.479403
							CHANNELS 3 Xrotation Yrotation Zrotation
							End Site
							{
								OFFSET 0 0 0
							}
						}
					}
				}
			}
		}
	}
	JOINT Spine_virtual
	{
		OFFSET 0.000000 0.000000 0.000000
		CHANNELS 3 Xrotation Yrotation Zrotation
		JOINT Spine
		{
			OFFSET 0.000000 6.876099 0.125700
			CHANNELS 3 Xrotation Yrotation Zrotation
			JOINT Spine1
			{
				OFFSET 0.000000 5.730043 0.104720
				CHANNELS 3 Xrotation Yrotation Zrotation
				JOINT Spine1_split
				{
					OFFSET 0.000000 5.730043 0.104720
					CHANNELS 3 Xrotation Yrotation Zrotation
					JOINT Spine2
					{
						OFFSET 0.000000 5.730043 0.104720
						CHANNELS 3 Xrotation Yrotation Zrotation
						JOINT Neck_virtual
						{
							OFFSET 0.000000 0.000000 0.000000
							CHANNELS 3 Xrotation Yrotation Zrotation
							JOINT Neck
							{
								OFFSET 0.000000 10.314075 0.188496
								CHANNELS 3 Xrotation Yrotation Zrotation
								JOINT Head
								{
									OFFSET 0.000000 7.643700 -2.377400
									CHANNELS 3 Xrotation Yrotation Zrotation
									JOINT HeadTop_End
									{
										OFFSET 0.000000 43.788605 -13.619600
										CHANNELS 3 Xrotation Yrotation Zrotation
										End Site
										{
											OFFSET 0 0 0
										}
									}
								}
							}
						}
						JOINT LeftShoulder_virtual
						{
							OFFSET 0.000000 0.000000 0.000000
							CHANNELS 3 Xrotation Yrotation Zrotation
							JOINT LeftShoulder
							{
								OFFSET 2.196100 4.412489 0.087492
								CHANNELS 3 Xrotation Yrotation Zrotation
								JOINT LeftShoulder_split
								{
									OFFSET 2.196100 4.412489 0.087492
									CHANNELS 3 Xrotation Yrotation Zrotation
									JOINT LeftArm
									{
										OFFSET 8.771219 -2.981674 -0.026999
										CHANNELS 3 Xrotation Yrotation Zrotation
										JOINT LeftForeArm
										{
											OFFSET 8.512804 0.000000 -0.000000
											CHANNELS 3 Xrotation Yrotation Zrotation
											JOINT LeftHand
											{
												OFFSET 18.484802 0.000000 -0.000000
												CHANNELS 3 Xrotation Yrotation Zrotation
												End Site
												{
													OFFSET 0 0 0
												}
											}
										}
									}
								}
							}
						}
						JOINT RightShoulder_virtual
						{
							OFFSET 0.000000 0.000000 0.000000
							CHANNELS 3 Xrotation Yrotation Zrotation
							JOINT RightShoulder
							{
								OFFSET -2.196100 4.412496 0.070690
								CHANNELS 3 Xrotation Yrotation Zrotation
								JOINT RightShoulder_split
								{
									OFFSET -2.196100 4.412496 0.070690
									CHANNELS 3 Xrotation Yrotation Zrotation
									JOINT RightArm
									{
										OFFSET -8.771282 -2.981682 -0.094208
										CHANNELS 3 Xrotation Yrotation Zrotation
										JOINT RightForeArm
										{
											OFFSET -8.494598 0.000000 0.000000
											CHANNELS 3 Xrotation Yrotation Zrotation
											JOINT RightHand
											{
												OFFSET -18.483803 0.000000 0.000001
												CHANNELS 3 Xrotation Yrotation Zrotation
												End Site
												{
													OFFSET 0 0 0
												}
											}
										}
									}
								}
							}
						}
					}
				}
			}
		}
	}
}
MOTION
Frames: 4
Frame Time: 0.03333333
2.924266 33.722485 -1.810059 0.000000 0.000000 0.000000 -0.956156 -21.459884 -1.375846 -2.630498 5.682763 -0.707931 19.768910 9.612069 2.080080 -18.452133 20.306571 -3.365630 -2.002106 0.307236 -1.767025 0.000000 0.000000 0.000000 -0.077867 -21.639317 -1.368825 -10.717793 -9.312332 -12.377791 14.519025 4.937134 2.700583 -10.281854 -4.741640 8.224704 -7.832035 0.494097 0.365498 0.000000 0.000000 0.000000 -0.218634 -22.213124 -2.080599 3.904941 1.280355 -1.691308 0.399533 -0.029217 0.131096 1.109137 0.365810 0.217899 0.000000 0.000000 0.000000 1.240640 0.423950 -0.295540 1.075024 -1.035931 2.319365 13.131275 10.245687 5.646010 0.000000 0.000000 0.000000 0.791999 0.440197 -0.166289 2.236455 -2.906378 -11.600793 -0.458985 -1.108100 -1.961995 -6.695613 -19.050342 -55.841318 0.488723 -14.136154 0.368346 0.000000 0.000000 0.000000 0.878912 0.442505 -0.125349 2.343097 -2.518530 16.606808 -0.733272 2.922133 -3.093064 7.171974 2.348278 65.645071 1.853605 20.024798 1.512432 0.000000 0.000000 0.000000 
3.074389 33.727455 -1.717066 0.000000 0.000000 0.000000 -0.885785 -22.272743 -1.545890 -2.537124 5.749397 -0.985211 19.708806 9.662675 2.008333 -18.728648 21.077078 -3.157128 -2.059163 0.329174 -1.684021 0.000000 0.000000 0.000000 -0.051651 -22.357781 -1.542215 -10.974759 -9.322949 -12.308844 14.263939 5.045392 2.624784 -10.357879 -4.615324 8.070456 -7.606602 0.458478 0.388652 0.000000 0.000000 0.000000 -0.177545 -23.012161 -2.262260 3.658491 0.826157 -1.834894 0.348406 -0.116487 0.110275 1.175432 0.381849 0.216642 0.000000 0.000000 0.000000 1.214446 0.328796 -0.316503 1.054815 -1.123724 2.409572 13.390048 11.193871 5.953690 0.000000 0.000000 0.000000 0.745047 0.360142 -0.187587 2.187815 -3.148245 -11.497577 -0.558214 -1.049945 -1.963343 -7.005368 -20.691257 -56.141320 0.489949 -14.652748 0.389791 0.000000 0.000000 0.000000 0.846002 0.358092 -0.168139 2.404004 -3.070485 16.960114 -0.793412 2.827903 -3.162834 6.747484 2.966823 66.193597 1.880638 20.525255 1.513789 0.000000 0.000000 0.000000 
3.216357 33.726849 -1.614309 0.000000 0.000000 0.000000 -0.804064 -23.070617 -1.710132 -2.504515 5.851091 -1.195380 19.678800 9.711358 1.968944 -18.975261 21.805620 -2.923522 -2.125907 0.350589 -1.598830 0.000000 0.000000 0.000000 -0.007117 -23.058241 -1.715480 -11.213349 -9.328254 -12.213421 13.956902 5.066018 2.523503 -10.335219 -4.488396 7.880941 -7.311707 0.431503 0.403968 0.000000 0.000000 0.000000 -0.114171 -23.772390 -2.433591 3.437504 0.341424 -2.013465 0.296489 -0.197752 0.073217 1.235111 0.404309 0.217380 0.000000 0.000000 0.000000 1.187612 0.235910 -0.348345 1.047032 -1.206462 2.495594 13.647454 12.069607 6.342947 0.000000 0.000000 0.000000 0.701890 0.286962 -0.218816 2.126493 -3.442069 -11.330877 -0.650957 -0.990948 -1.951373 -7.178288 -22.424464 -56.454116 0.513842 -15.536310 0.423796 0.000000 0.000000 0.000000 0.824301 0.276875 -0.228185 2.468213 -3.653939 17.356703 -0.862589 2.699088 -3.196564 6.191659 3.695996 66.665303 1.907938 21.039100 1.515436 0.000000 0.000000 0.000000 
3.346209 33.725410 -1.509298 0.000000 0.000000 0.000000 -0.686820 -23.806771 -1.854729 -2.544592 5.978179 -1.351161 19.668623 9.756540 1.970316 -19.151767 22.468782 -2.668860 -2.212727 0.371319 -1.519894 0.000000 0.000000 0.000000 0.087337 -23.715858 -1.870840 -11.412692 -9.301895 -12.117957 13.565471 5.017030 2.392291 -10.114696 -4.359505 7.781431 -7.126376 0.412004 0.403374 0.000000 0.000000 0.000000 -0.001973 -24.458728 -2.577016 3.228661 -0.173015 -2.248849 0.238674 -0.276538 0.015233 1.250184 0.423087 0.235473 0.000000 0.000000 0.000000 1.151770 0.143326 -0.396589 1.048780 -1.286382 2.601826 13.918661 12.858384 6.811838 0.000000 0.000000 0.000000 0.658824 0.219032 -0.264201 2.052917 -3.775823 -11.085578 -0.727832 -0.926291 -1.921164 -7.192439 -24.216690 -56.806198 0.570279 -16.845729 0.469208 0.000000 0.000000 0.000000 0.808154 0.196799 -0.310251 2.537236 -4.272097 17.775786 -0.930330 2.536078 -3.200258 5.575021 4.496763 67.047070 1.931382 21.539019 1.527485 0.000000 0.000000 0.000000 
